<?xml version="1.0" encoding="UTF-8"?>
<svg width="100px" height="32px" viewBox="0 0 100 32" version="1.1" xmlns="http://www.w3.org/2000/svg" xmlns:xlink="http://www.w3.org/1999/xlink">
    <title>PayPal</title>
    <g id="Page-1" stroke="none" stroke-width="1" fill="none" fill-rule="evenodd">
        <g id="paypal" fill-rule="nonzero">
            <rect id="Rectangle" fill="#FFFFFF" x="0" y="0" width="100" height="32" rx="4"></rect>
            <g id="Group" transform="translate(28.000000, 6.000000)">
                <path d="M11.5,9.5 C11.2,11.6 9.6,11.6 8.1,11.6 L7.3,11.6 L7.8,8.5 C7.8,8.2 8.1,8 8.4,8 L8.7,8 C9.7,8 10.7,8 11.2,8.5 C11.5,8.8 11.6,9.1 11.5,9.5 Z M11,3.5 C10.7,3.2 10.2,3 9.4,3 L6.9,3 C6.6,3 6.3,3.2 6.2,3.5 L4.5,14.5 C4.5,14.7 4.6,14.9 4.9,14.9 L6.9,14.9 L7.3,12.5 L7.3,12.7 C7.4,12.4 7.7,12.2 8,12.2 L8.7,12.2 C10.9,12.2 12.5,11.1 13,8.7 C13.2,7.6 13.1,6.7 12.6,6.1 C12.2,5.4 11.7,5 11,3.5 Z" id="Shape" fill="#009CDE"></path>
                <path d="M22.5,9.5 C22.2,11.6 20.6,11.6 19.1,11.6 L18.3,11.6 L18.8,8.5 C18.8,8.2 19.1,8 19.4,8 L19.7,8 C20.7,8 21.7,8 22.2,8.5 C22.6,8.8 22.6,9.1 22.5,9.5 Z M22,3.5 C21.7,3.2 21.2,3 20.4,3 L17.9,3 C17.6,3 17.3,3.2 17.2,3.5 L15.5,14.5 C15.5,14.7 15.6,14.9 15.9,14.9 L17.7,14.9 C18,14.9 18.3,14.7 18.3,14.4 L18.8,11.9 L19.2,11.9 C21.4,11.9 23,10.8 23.5,8.4 C23.7,7.3 23.6,6.4 23.1,5.8 C22.7,5.4 22.4,5 22,3.5 Z" id="Shape" fill="#012169"></path>
            </g>
        </g>
    </g>
</svg>