<?xml version="1.0" encoding="UTF-8"?>
<svg width="100px" height="32px" viewBox="0 0 100 32" version="1.1" xmlns="http://www.w3.org/2000/svg" xmlns:xlink="http://www.w3.org/1999/xlink">
    <title>Visa</title>
    <g id="Page-1" stroke="none" stroke-width="1" fill="none" fill-rule="evenodd">
        <g id="visa" fill-rule="nonzero">
            <rect id="Rectangle" fill="#FFFFFF" x="0" y="0" width="100" height="32" rx="4"></rect>
            <path d="M42.5,10.5 L38.1,21.5 L35.2,21.5 L33,13.1 C32.8,12.4 32.6,12.1 32,11.8 C31,11.3 29.4,10.9 28,10.7 L28.1,10.5 L33.2,10.5 C33.9,10.5 34.5,11 34.6,11.8 L35.8,18 L38.6,10.5 L42.5,10.5 Z M58.5,17.7 C58.5,15.2 55.2,15 55.2,13.9 C55.2,13.5 55.6,13.1 56.4,13 C57.8,12.9 59,13.2 59.9,13.6 L60.5,10.9 C59.6,10.6 58.5,10.3 57.1,10.3 C53.5,10.3 51,12.2 51,14.9 C51,16.9 52.8,18 54.2,18.6 C55.6,19.2 56.1,19.6 56.1,20.1 C56.1,20.9 55.1,21.2 54.2,21.2 C52.6,21.2 51.1,20.8 49.9,20.2 L49.3,23 C50.6,23.5 52,23.8 53.5,23.8 C57.4,23.8 59.8,22 59.8,19.1 C59.8,17.7 58.5,17.7 58.5,17.7 Z M70.9,21.5 L74.2,21.5 L71.1,10.5 L68,10.5 C67.4,10.5 66.9,10.9 66.7,11.4 L61.3,21.5 L65.2,21.5 L66,19.5 L70.3,19.5 L70.9,21.5 Z M67.1,16.9 L68.7,13.1 L69.7,16.9 L67.1,16.9 Z M48.2,10.5 L45,21.5 L41.3,21.5 L44.5,10.5 L48.2,10.5 Z" id="Shape" fill="#2566AF"></path>
            <path d="M32,11.8 C31,11.3 29.4,10.9 28,10.7 L28.1,10.5 L33.2,10.5 C33.9,10.5 34.5,11 34.6,11.8" id="Path" fill="#E6A540"></path>
        </g>
    </g>
</svg>